<svg width="28" height="28" viewBox="0 0 28 28" fill="none" xmlns="http://www.w3.org/2000/svg">
<g clip-path="url(#clip0_1_32)">
<path d="M20.3035 20.067C16.8599 23.5107 11.3175 23.5107 7.92927 20.067C4.48562 16.6234 4.54473 11.081 7.92927 7.63737C11.3729 4.19371 16.9153 4.19371 20.3035 7.63737C23.7472 11.081 23.7472 16.6825 20.3035 20.067Z" fill="white"/>
<path d="M23.9208 10.1462L17.8501 4.07548L19.3687 1.1565C19.9525 -0.0110873 21.5265 -0.243866 22.4613 0.690945L27.3054 5.53497C28.2402 6.46978 28.0074 8.04381 26.8398 8.6276L23.9208 10.1462Z" fill="white"/>
<path d="M4.07918 17.8501L10.1499 23.9208L8.6313 26.8398C8.0475 28.0074 6.47347 28.2402 5.53866 27.3054L0.694641 22.4613C-0.24017 21.5265 -0.00739086 20.0116 1.1602 19.3687L4.07918 17.8501Z" fill="white"/>
<path d="M21.1201 11.4912C23.0451 10.209 23.5144 7.58194 21.9367 6.06334C20.3626 4.48931 17.7355 5.01398 16.4497 6.93903C16.1578 7.34916 15.574 7.46371 15.1676 7.17181C14.1182 6.46978 15.5186 4.48561 16.1615 3.78727C19.2542 0.694636 24.5637 2.21324 25.6168 6.35523C26.4334 9.15597 24.6229 12.5405 21.7076 13.1834C20.7728 13.3571 20.2481 12.0158 21.1238 11.4912H21.1201Z" fill="#F7A941"/>
<g opacity="0.3">
<path d="M19.195 3.60993L19.0768 3.02613C19.4278 2.96702 19.7788 2.9079 20.1853 2.9079V3.49169C19.8343 3.49169 19.5424 3.55081 19.1913 3.60993H19.195Z" fill="white"/>
</g>
<g opacity="0.3">
<path d="M17.2109 4.71839L16.8007 4.30825C17.2109 3.89812 17.6173 3.60622 18.142 3.37344L18.3748 3.89812C17.9092 4.1309 17.5582 4.4228 17.2072 4.71469L17.2109 4.71839Z" fill="white"/>
</g>
<path d="M23.1042 8.04752C22.2286 8.92321 20.8282 8.92321 19.9525 8.10664C19.0768 7.23094 19.1359 5.83057 20.0116 4.95488C20.8873 4.07919 22.2877 4.07919 23.1634 4.89576C23.9799 5.71234 23.9799 7.11271 23.1042 8.04752Z" fill="#636C78"/>
<path d="M7.05357 16.3352C5.12853 17.6173 4.65927 20.2444 6.237 21.763C7.81103 23.337 10.4381 22.8123 11.7239 20.8873C12.0158 20.4772 12.5996 20.3626 13.0061 20.6545C14.0554 21.3566 12.6551 23.3407 12.0121 24.0391C8.9195 27.1317 3.60992 25.6131 2.55687 21.4711C1.7403 18.6704 3.5508 15.2858 6.40697 14.6429C7.45632 14.4101 7.92557 15.8105 7.04988 16.3352H7.05357Z" fill="#3FB498"/>
<g opacity="0.3">
<path d="M3.72816 19.8934H3.14436C3.14436 19.6015 3.20348 19.3096 3.2626 19.0177L3.8464 19.1359C3.78728 19.3687 3.72816 19.6606 3.72816 19.8934Z" fill="white"/>
</g>
<g opacity="0.3">
<path d="M4.1346 18.3194L3.5508 18.0866C3.66904 17.8538 3.72446 17.6764 3.8427 17.5028C4.30826 16.7453 4.89206 16.1615 5.59409 15.8105L5.88599 16.3352C5.30219 16.6862 4.77751 17.1518 4.36738 17.7947C4.30826 17.9683 4.19372 18.0866 4.1346 18.3194Z" fill="white"/>
</g>
<path d="M5.12853 19.7788C6.00422 18.9031 7.40459 18.9031 8.28028 19.7197C9.15598 20.5954 9.09686 21.9958 8.22117 22.8715C7.34547 23.7472 5.9451 23.7472 5.06941 22.9306C4.25284 22.0549 4.25284 20.6545 5.12853 19.7788Z" fill="#636C78"/>
<path d="M17.9683 24.0391L24.0391 17.9683L26.958 19.4869C28.1256 20.0707 28.3584 21.6448 27.4236 22.5796L22.5205 27.4236C21.5856 28.3584 20.0116 28.1256 19.4278 26.958L17.9683 24.0391Z" fill="white"/>
<path d="M10.0314 3.96064L3.96064 10.0314L1.04167 8.51277C-0.125925 7.92897 -0.358704 6.35494 0.576107 5.42013L5.47925 0.576107C6.41406 -0.358704 7.98809 -0.125925 8.57188 1.04167L10.0314 3.96064Z" fill="white"/>
<path d="M16.5088 20.9427C17.791 22.8678 20.3589 23.2779 21.9367 21.7593C23.5107 20.1853 23.0451 17.5582 21.061 16.2724C20.6508 15.9805 20.5363 15.3967 20.8282 14.9902C21.5856 13.9409 23.5144 15.2821 24.1536 15.9842C27.2462 19.0768 25.7276 24.3864 21.5856 25.4394C18.844 26.256 15.4595 24.5046 14.8166 21.5893C14.6429 20.54 15.9842 20.0707 16.5088 20.9464V20.9427Z" fill="#E40521"/>
<g opacity="0.3">
<path d="M24.3864 19.195C24.2127 18.3193 23.8617 17.5619 23.2188 16.9781L23.6289 16.568C24.331 17.27 24.7965 18.142 24.9702 19.1359L24.3864 19.195Z" fill="white"/>
</g>
<g opacity="0.3">
<path d="M24.8556 21.2346L24.2718 21.061C24.331 20.7691 24.3901 20.4181 24.4455 20.067H25.0293C25.0293 20.5326 24.9702 20.8836 24.8556 21.2346Z" fill="white"/>
</g>
<path d="M19.9525 22.8715C19.0768 21.9958 19.0768 20.5954 19.8934 19.7197C20.7691 18.844 22.1694 18.844 23.0451 19.7788C23.9208 20.6545 23.9208 22.0549 23.1042 22.9306C22.2877 23.8063 20.8282 23.7472 19.9525 22.8715Z" fill="#636C78"/>
<path d="M11.7239 6.82081C10.4418 4.89576 7.87385 4.48563 6.29612 6.00423C4.72209 7.57826 5.18765 10.2053 7.17181 11.4912C7.58195 11.7831 7.69649 12.3669 7.40459 12.7733C6.64714 13.8227 4.7184 12.4814 4.07918 11.7794C0.927421 8.74585 2.50145 3.37715 6.58802 2.3278C9.38876 1.51123 12.7142 3.32173 13.3571 6.17789C13.5899 7.22725 12.2486 7.75192 11.7239 6.82081Z" fill="#668BC1"/>
<g opacity="0.3">
<path d="M4.54474 11.2547C4.31196 11.0219 4.1346 10.7891 3.96094 10.4972L4.48562 10.1462C4.65928 10.4381 4.83663 10.6118 5.01029 10.7891L4.54474 11.2547Z" fill="white"/>
</g>
<g opacity="0.3">
<path d="M3.43626 9.44786C3.20348 8.74583 3.08525 8.04749 3.20348 7.34546L3.78728 7.40458C3.72816 8.04749 3.78728 8.68671 4.02006 9.27051L3.43626 9.44417V9.44786Z" fill="white"/>
</g>
<path d="M8.28029 4.89574C9.15598 5.77143 9.15598 7.1718 8.3394 8.04749C7.46371 8.92319 6.06334 8.92319 5.18765 7.98837C4.31196 7.11268 4.31196 5.71231 5.12853 4.83662C6.00422 4.02004 7.40459 4.02004 8.28029 4.89574Z" fill="#636C78"/>
<path d="M14.9902 10.6709V12.8878C14.9902 13.4125 14.5801 13.8226 14.0554 13.8226H10.4381L8.68673 15.0494V10.6709C8.68673 10.1462 9.09686 9.73608 9.62154 9.73608H14.0554C14.5801 9.73608 14.9902 10.1462 14.9902 10.6709Z" fill="#6AABD8"/>
<path d="M10.3827 10.9628H13.3608V11.5466H10.3827V10.9628Z" fill="white"/>
<path d="M10.3827 12.0158H12.0158V12.5996H10.3827V12.0158Z" fill="white"/>
<path d="M13.0061 13.649V15.8659C13.0061 16.3906 13.4162 16.8007 13.9409 16.8007H17.5582L19.3096 18.0274V13.649C19.3096 13.1243 18.8994 12.7142 18.3748 12.7142H13.9409C13.4162 12.7142 13.0061 13.1243 13.0061 13.649Z" fill="#EA516D"/>
<path d="M14.6429 13.9409H17.621V14.5247H14.6429V13.9409Z" fill="white"/>
<path d="M15.9842 14.9902H17.6173V15.574H15.9842V14.9902Z" fill="white"/>
</g>
<defs>
<clipPath id="clip0_1_32">
<rect width="28" height="28" fill="white"/>
</clipPath>
</defs>
</svg>
