<svg width="55" height="60" viewBox="0 0 55 60" fill="none" xmlns="http://www.w3.org/2000/svg">
<g clip-path="url(#clip0_1_5)">
<path d="M52.1067 28.019C51.4031 28.019 50.7606 27.5499 50.5617 26.8412C47.38 15.2154 35.9837 7.89326 24.0622 9.80539C21.375 10.2388 18.902 11.2535 16.7094 12.8291C15.9905 13.3441 14.9911 13.1809 14.4761 12.462C13.9611 11.743 14.1242 10.7436 14.8432 10.2286C17.4386 8.36237 20.3705 7.159 23.5523 6.644C37.0953 4.47183 50.0314 12.7883 53.6466 25.9947C53.8812 26.8463 53.3764 27.7284 52.5249 27.9629C52.3821 28.0037 52.2393 28.019 52.1016 28.019H52.1067Z" fill="#668BC1"/>
<path d="M26.7494 60C21.941 60 17.1989 58.9547 12.7985 56.8947C11.998 56.5225 11.6512 55.569 12.0286 54.7684C12.4008 53.9679 13.3543 53.6211 14.1548 53.9985C19.5802 56.5378 25.597 57.3689 31.5476 56.4154C43.622 54.4778 52.1373 43.8311 51.3674 31.6495C51.3113 30.7674 51.9793 30.0077 52.8614 29.9516C53.7435 29.9006 54.5033 30.5634 54.5594 31.4456C54.9826 38.0692 52.9328 44.5857 48.7924 49.7918C44.6265 55.0336 38.6811 58.5111 32.0524 59.5768C30.2881 59.8623 28.5136 60 26.7494 60Z" fill="#3FB498"/>
<path d="M27.1879 34.7344C23.073 34.7344 19.621 32.0014 19.004 28.1414C18.3156 23.8379 21.2527 19.779 25.5511 19.0856C27.7233 18.7337 29.8853 18.8867 31.9759 19.5292C32.8223 19.7892 33.2965 20.6867 33.0365 21.528C32.7764 22.3693 31.879 22.8486 31.0376 22.5886C29.4213 22.094 27.7488 21.9767 26.061 22.247C23.5013 22.66 21.7524 25.0718 22.1654 27.6315C22.5631 30.0994 24.878 31.7362 27.6774 31.5119C28.5493 31.4456 29.3295 32.0982 29.4009 32.9804C29.4723 33.8625 28.8145 34.6324 27.9324 34.7038C27.6825 34.7242 27.4377 34.7344 27.193 34.7344H27.1879Z" fill="#E40521"/>
<path d="M26.7545 47.4004C22.4764 47.4004 18.3156 46.0644 14.7871 43.5098C10.351 40.3025 7.42925 35.5554 6.56242 30.1453C5.6395 24.3885 7.21509 18.489 10.8864 13.9662C11.4422 13.2778 12.4518 13.1758 13.135 13.7316C13.8234 14.2874 13.9254 15.297 13.3696 15.9803C10.2694 19.7994 8.93856 24.7761 9.71871 29.6354C10.453 34.2041 12.9158 38.2068 16.6585 40.9144C20.4011 43.622 24.98 44.7081 29.5436 43.9738C35.535 43.0101 39.6244 37.3553 38.6607 31.3691C38.2527 28.8196 36.9576 26.4893 35.0149 24.8016C34.3469 24.2203 34.2755 23.2107 34.8568 22.5427C35.4381 21.8747 36.4477 21.8033 37.1157 22.3846C39.6244 24.5619 41.2968 27.5703 41.8271 30.8592C43.0713 38.5893 37.7887 45.891 30.0586 47.1352C28.9573 47.3137 27.8508 47.4004 26.7596 47.4004H26.7545Z" fill="#F7A941"/>
<path d="M26.7596 53.6976C14.8636 53.6976 4.19648 45.7993 0.96371 34.0002C0.729156 33.1486 1.23396 32.2665 2.08549 32.032C2.93703 31.7974 3.81915 32.3022 4.05371 33.1537C7.23549 44.7795 18.6318 52.1016 30.5532 50.1895C33.2404 49.7561 35.7134 48.7414 37.9009 47.1658C38.6199 46.6508 39.6193 46.814 40.1343 47.5329C40.6493 48.2519 40.4861 49.2513 39.7671 49.7663C37.1718 51.6325 34.2398 52.8359 31.058 53.3509C29.615 53.5855 28.1771 53.6976 26.7545 53.6976H26.7596Z" fill="#668BC1"/>
<path d="M1.65208 30.0535C0.81584 30.0535 0.112177 29.4009 0.0560881 28.5544C-0.367129 21.9308 1.68267 15.4143 5.82306 10.2082C9.98895 4.96134 15.9344 1.48891 22.558 0.42322C29.1102 -0.627175 35.744 0.285548 41.7354 3.06451C42.5359 3.43673 42.8877 4.39025 42.5155 5.19079C42.1433 5.99133 41.1898 6.33807 40.3892 5.97094C34.9792 3.45713 28.9878 2.63619 23.0679 3.5846C10.9935 5.52223 2.47302 16.1689 3.24807 28.3505C3.30415 29.2326 2.63618 29.9924 1.75406 30.0484C1.71836 30.0484 1.68267 30.0484 1.65208 30.0484V30.0535Z" fill="#3FB498"/>
<path d="M26.78 41.098C25.3829 41.098 23.9959 40.8889 22.6396 40.4708C21.7932 40.2108 21.3189 39.3133 21.579 38.472C21.839 37.6256 22.7365 37.1514 23.5778 37.4114C25.1942 37.906 26.8667 38.0233 28.5544 37.753C31.1141 37.34 32.8631 34.9282 32.4501 32.3685C32.0473 29.8649 29.8649 28.3454 26.8922 28.4932C26.0049 28.5442 25.2554 27.8559 25.2146 26.9737C25.1687 26.0916 25.852 25.337 26.7341 25.2962C31.3742 25.0565 34.9486 27.7029 35.6166 31.8637C36.3049 36.1672 33.3679 40.2261 29.0694 40.9195C28.3046 41.0419 27.5448 41.1031 26.7851 41.1031L26.78 41.098Z" fill="#E40521"/>
<path d="M42.4849 46.6304C42.1331 46.6304 41.7761 46.5131 41.4753 46.2735C40.7869 45.7177 40.685 44.7081 41.2408 44.0197C44.341 40.2006 45.6718 35.2239 44.8916 30.3646C44.1574 25.7959 41.6946 21.7931 37.9519 19.0856C34.2092 16.378 29.6354 15.2919 25.0667 16.0262C19.0754 16.9899 14.986 22.6447 15.9497 28.6309C16.3576 31.1855 17.6579 33.5209 19.6108 35.2086C20.2787 35.7848 20.3501 36.7995 19.7739 37.4675C19.1978 38.1355 18.1831 38.2068 17.5151 37.6307C14.9962 35.4534 13.3186 32.4348 12.7883 29.1408C11.5441 21.4107 16.8267 14.1089 24.5568 12.8648C29.9669 11.998 35.3922 13.2829 39.8283 16.4902C44.2645 19.6975 47.1862 24.4446 48.053 29.8547C48.9759 35.6115 47.4004 41.511 43.7291 46.0338C43.4129 46.4213 42.9489 46.6253 42.4849 46.6253V46.6304Z" fill="#F7A941"/>
</g>
<defs>
<clipPath id="clip0_1_5">
<rect width="54.6104" height="60" fill="white"/>
</clipPath>
</defs>
</svg>
