<svg width="28" height="21" viewBox="0 0 28 21" fill="none" xmlns="http://www.w3.org/2000/svg">
<g clip-path="url(#clip0_1_70)">
<path d="M20.3246 8.91701V9.23312C20.3246 9.62331 20.3888 10.0086 20.5123 10.3741L21.2284 12.5275H22.5818V7.55875H21.6779C20.9321 7.55875 20.3246 8.16626 20.3246 8.91207V8.91701Z" fill="#3C3C3B"/>
<path d="M26.5084 9.85542L25.7428 12.5324L22.1274 9.37139C21.6285 9.37139 21.2235 8.96637 21.2235 8.46752C21.2235 7.72171 21.831 7.1142 22.5768 7.1142H25.7379C26.2367 7.1142 26.6417 7.51921 26.6417 8.01806V8.86759C26.6417 9.20345 26.5973 9.53932 26.5034 9.86036L26.5084 9.85542Z" fill="#575756"/>
<path d="M24.8439 13.8858H22.1323V15.8861H24.8439V13.8858Z" fill="#E6AF78"/>
<path d="M22.1323 14.7155C22.5521 14.8835 23.0065 14.9823 23.4856 14.9823C23.9647 14.9823 24.4241 14.8884 24.8389 14.7155V13.8858H22.1274V14.7155H22.1323Z" fill="#D29B6E"/>
<path d="M27.0171 15.6046L24.839 14.9823L23.4856 15.8812L22.1323 14.9823L19.9541 15.6046C19.3713 15.7725 18.9712 16.301 18.9712 16.9085V20.2128C18.9712 20.4647 19.1738 20.6623 19.4207 20.6623H27.5505C27.8024 20.6623 28 20.4598 28 20.2128V16.9085C28 16.306 27.5999 15.7725 27.0171 15.6046Z" fill="#F7A941"/>
<path d="M23.9351 20.6623H23.0312L23.2584 15.8861H23.7128L23.9351 20.6623Z" fill="#707588"/>
<path d="M23.4856 14.3402C21.9891 14.3402 20.774 13.1251 20.774 11.6286V11.1001C20.774 10.863 20.8679 10.6309 21.0407 10.4629L21.8606 9.64305C22.0335 9.47018 22.2706 9.3714 22.5176 9.37634C23.9598 9.42079 25.239 9.73195 25.9354 10.4136C26.1083 10.5815 26.1972 10.8136 26.1972 11.0556V11.6335C26.1972 13.1301 24.9822 14.3451 23.4856 14.3451V14.3402Z" fill="#F0C087"/>
<path d="M22.1323 11.2137C22.1323 10.6951 22.5719 10.2802 23.0905 10.3098C24.0042 10.3691 25.3576 10.5222 26.1873 10.9174C26.1626 10.7247 26.0787 10.5469 25.9404 10.4136C25.244 9.73197 23.9647 9.4208 22.5225 9.37635C22.2755 9.36647 22.0385 9.47019 21.8656 9.64306L21.0457 10.463C20.8778 10.6309 20.779 10.863 20.779 11.1001V11.6286C20.779 12.8634 21.6087 13.9055 22.7398 14.2315C22.3644 13.7672 22.1372 13.1795 22.1372 12.5325V11.2137H22.1323Z" fill="#E6AF78"/>
<path d="M26.1972 18.252C26.1972 17.8914 26.3405 17.5457 26.5923 17.2938L27.753 16.1331C27.9062 16.3553 28 16.6221 28 16.9085V20.2128C28 20.4647 27.7975 20.6623 27.5505 20.6623H26.1972V18.252Z" fill="#F39325"/>
<path d="M23.7128 16.79H23.2634C23.1399 16.79 23.0362 16.6912 23.0362 16.5628V15.8861H23.94V16.5628C23.94 16.6863 23.8412 16.79 23.7128 16.79Z" fill="#5C5E6F"/>
<path d="M23.4856 15.8812L22.7201 16.464C22.5867 16.5628 22.399 16.5233 22.32 16.38L21.6334 15.1255L21.91 14.7057C21.9693 14.6118 22.1027 14.597 22.1817 14.6711L23.4856 15.8812Z" fill="#F39325"/>
<path d="M23.4856 15.8812L24.2512 16.464C24.3845 16.5628 24.5722 16.5233 24.6513 16.38L25.3378 15.1255L25.0612 14.7057C25.0019 14.6118 24.8686 14.597 24.7896 14.6711L23.4856 15.8812Z" fill="#F39325"/>
<path d="M8.08538 14.1476C7.70013 13.1251 7.3939 11.3668 7.32475 10.4531C7.20127 8.70956 5.88746 7.29202 4.11431 7.29202C2.34116 7.29202 1.02734 8.70956 0.903865 10.4531C0.839656 11.3668 0.533429 13.1251 0.143237 14.1476C0.0592713 14.3748 0.158054 14.6217 0.380316 14.7205C0.795204 14.9082 1.67437 15.2737 2.74123 15.4169H5.49727C6.55424 15.2737 7.44329 14.9082 7.85818 14.7205C8.08044 14.6217 8.17922 14.3698 8.09526 14.1476H8.08538Z" fill="#3C3C3B"/>
<path d="M7.8483 14.7254C8.07056 14.6267 8.16934 14.3748 8.08538 14.1525C7.70012 13.1301 7.3939 11.3718 7.32969 10.458C7.20621 8.7145 5.8924 7.29697 4.11924 7.29697C4.11924 7.29697 4.10937 7.29697 4.10443 7.29697C2.74122 7.30191 2.26213 9.15902 3.4327 9.8505C3.50185 9.89002 3.5463 9.90977 3.5463 9.90977L4.57365 15.4219H5.49233C6.5493 15.2786 7.43835 14.9131 7.85324 14.7254H7.8483Z" fill="#575756"/>
<path d="M7.37908 16.3306L5.91709 15.5997C5.61087 15.4465 5.41824 15.1354 5.41824 14.7896V13.4363H2.70665V14.7896C2.70665 15.1304 2.51402 15.4465 2.2078 15.5997L0.74581 16.3306C0.286469 16.5578 -0.00494003 17.0271 -0.00494003 17.5407V20.2079C-0.00494003 20.4548 0.197565 20.6573 0.444522 20.6573H7.67049C7.92238 20.6573 8.11995 20.4548 8.11995 20.2079V17.5407C8.11995 17.0271 7.82854 16.5578 7.3692 16.3306H7.37908Z" fill="#E6AF78"/>
<path d="M4.06491 15.244C4.54895 15.244 5.01817 15.1453 5.44293 14.9674C5.43306 14.9082 5.41824 14.8538 5.41824 14.7946V13.4413H2.70665V14.7946C2.70665 14.8538 2.69183 14.9131 2.68195 14.9674C3.11166 15.1453 3.57594 15.244 4.05997 15.244H4.06491Z" fill="#D29B6E"/>
<path d="M7.37908 16.3307L6.33692 15.812C5.85288 16.5579 5.01817 17.0518 4.05997 17.0518C3.10178 17.0518 2.26706 16.5579 1.78303 15.812L0.74087 16.3307C0.281529 16.5579 -0.00988007 17.0271 -0.00988007 17.5407V20.2079C-0.00988007 20.4598 0.192625 20.6573 0.439582 20.6573H7.66555C7.91744 20.6573 8.11501 20.4548 8.11501 20.2079V17.5407C8.11501 17.0271 7.8236 16.5579 7.36426 16.3307H7.37908Z" fill="#E40521"/>
<path d="M4.06491 14.3402C2.68689 14.3402 1.55089 13.3128 1.37802 11.9793C1.35332 11.7866 1.44717 11.5989 1.62004 11.51C1.82748 11.4063 2.12877 11.2285 2.42018 10.9717C2.74122 10.6852 2.92891 10.379 3.03757 10.1567C3.13142 9.96409 3.33886 9.85542 3.5463 9.90976C5.13671 10.3148 6.21838 11.1445 6.61351 11.4804C6.71723 11.5693 6.78144 11.7027 6.76662 11.8459C6.65796 13.2437 5.48739 14.3402 4.06491 14.3402Z" fill="#F0C087"/>
<path d="M6.60857 11.4804C6.21344 11.1445 5.13177 10.3148 3.54137 9.90976C3.33392 9.85542 3.12648 9.96409 3.03264 10.1567C2.95361 10.3246 2.82025 10.542 2.61775 10.7593C2.55848 10.8284 2.48933 10.8976 2.41524 10.9667C2.12383 11.2236 1.82255 11.4014 1.6151 11.5051C1.44223 11.594 1.34839 11.7817 1.37308 11.9743C1.5262 13.1696 2.46463 14.1228 3.65003 14.3007C3.11166 13.9352 2.70665 13.4264 2.70665 12.5275V11.8854C2.81037 11.8113 2.9141 11.7323 3.01782 11.6434C3.26971 11.4211 3.48704 11.1594 3.66485 10.8828C4.87987 11.2631 5.70471 11.8953 6.02082 12.162C6.10478 12.2361 6.31717 12.4337 6.56906 12.6658C6.67772 12.409 6.74687 12.1324 6.77157 11.841C6.78144 11.7027 6.72217 11.5693 6.61845 11.4755L6.60857 11.4804Z" fill="#E6AF78"/>
<path d="M0.276592 16.7258C0.103722 16.9579 0 17.2395 0 17.5408V20.2079C0 20.4598 0.202505 20.6574 0.449462 20.6574H1.80279V18.3804C1.80279 18.1038 1.67931 17.847 1.46199 17.6741L0.271653 16.7209L0.276592 16.7258Z" fill="#D20A11"/>
<path d="M20.4876 15.7133L16.7091 14.3402L13.9975 15.244L11.2859 14.3402L7.5075 15.7133C6.79132 15.975 6.31716 16.6517 6.31716 17.4123V20.2128C6.31716 20.4598 6.51967 20.6623 6.76663 20.6623H21.2186C21.4705 20.6623 21.668 20.4598 21.668 20.2128V17.4123C21.668 16.6517 21.1939 15.975 20.4777 15.7133H20.4876Z" fill="#668BC1"/>
<path d="M13.5283 16.143L13.0986 20.6623H14.9063L14.4717 16.143H13.5283Z" fill="#707588"/>
<path d="M14.4766 16.7653H13.5283C13.3554 16.7653 13.2122 16.6221 13.2122 16.4492V15.244H14.7927V16.4492C14.7927 16.6221 14.6495 16.7653 14.4766 16.7653Z" fill="#5C5E6F"/>
<path d="M21.1939 16.1775C21.5001 16.5035 21.6779 16.9431 21.6779 17.4074V20.2079C21.6779 20.4598 21.4754 20.6573 21.2284 20.6573H18.9712V19.146C18.9712 18.6669 19.1639 18.2075 19.4997 17.8667L21.1939 16.1726V16.1775Z" fill="#4D76B4"/>
<path d="M18.9663 5.02495V1.24157C18.9663 0.742717 18.5613 0.337708 18.0624 0.337708H12.6442C10.6488 0.337708 9.02875 1.95775 9.02875 3.95316V5.02495C9.02875 5.50899 9.10778 5.99303 9.26089 6.45237L9.40907 6.90183C9.45352 7.04012 9.47822 7.18336 9.47822 7.33153V7.56367H18.5119V7.33153C18.5119 7.1883 18.5366 7.04012 18.5811 6.90183L18.7292 6.45237C18.8823 5.99303 18.9614 5.50899 18.9614 5.02495H18.9663Z" fill="#3C3C3B"/>
<path d="M11.2909 2.17013C11.2909 3.18265 12.1108 4.00255 13.1233 4.00255H13.3752L13.4987 7.55873H18.5119V7.32659C18.5119 7.18336 18.5366 7.03518 18.5811 6.89689L18.7292 6.44743C18.8823 5.98809 18.9614 5.50405 18.9614 5.02001V1.24157C18.9614 0.742717 18.5564 0.337708 18.0575 0.337708H13.1184C12.1058 0.337708 11.2859 1.15761 11.2859 2.17013H11.2909Z" fill="#575756"/>
<path d="M16.7091 11.1791H11.2909V15.2441H16.7091V11.1791Z" fill="#E6AF78"/>
<path d="M11.2909 12.7053C12.091 13.1696 13.0146 13.4363 14.0025 13.4363C14.9903 13.4363 15.9139 13.1696 16.7141 12.7053V11.1791H11.2958V12.7053H11.2909Z" fill="#D29B6E"/>
<path d="M14.0025 15.244L12.5602 16.6863C12.3676 16.8789 12.0466 16.8591 11.8836 16.6418L10.392 14.676L10.7821 13.8512C10.8957 13.6092 11.197 13.5203 11.4292 13.6586L14.0074 15.249L14.0025 15.244Z" fill="#4D76B4"/>
<path d="M14.0025 15.244L15.4447 16.6863C15.6373 16.8789 15.9584 16.8591 16.1214 16.6418L17.613 14.676L17.2228 13.8512C17.1092 13.6092 16.8079 13.5203 16.5758 13.6586L13.9975 15.249L14.0025 15.244Z" fill="#4D76B4"/>
<path d="M14.0025 12.5325C11.5082 12.5325 9.48809 10.5124 9.48809 8.01808V7.4896C9.48809 7.25252 9.58194 7.02038 9.75481 6.85245L10.1302 6.47707C10.2981 6.30914 10.3969 6.077 10.3969 5.83992V4.75825C10.3969 4.55081 10.5352 4.36806 10.7426 4.31867C11.8095 4.06677 15.1335 3.46913 17.3957 5.13363C17.5438 5.24229 17.6229 5.4201 17.6229 5.60284V5.84486C17.6229 6.08194 17.7167 6.31408 17.8896 6.48201L18.265 6.85739C18.4329 7.02532 18.5317 7.25746 18.5317 7.49454V8.02302C18.5317 10.5173 16.5116 12.5374 14.0173 12.5374L14.0025 12.5325Z" fill="#F0C087"/>
<path d="M17.3858 5.12867C15.7954 3.95809 13.6814 3.9087 12.1947 4.06675C11.5675 4.1359 11.0489 4.23962 10.7328 4.31371C10.5303 4.3631 10.387 4.54585 10.387 4.75329V5.83497C10.387 6.07698 10.2932 6.30418 10.1203 6.47212L9.74493 6.84749C9.577 7.01542 9.47821 7.24756 9.47821 7.48464V8.01313C9.47821 10.3246 11.2119 12.2213 13.4493 12.4929C12.6689 11.6829 12.1898 10.5815 12.1898 9.36645V6.06711C12.1898 5.60777 12.5306 5.22745 12.985 5.16818C14.0667 5.02989 16.0522 4.95086 17.608 5.83003V5.58801C17.608 5.40526 17.529 5.22745 17.3808 5.11879L17.3858 5.12867Z" fill="#E6AF78"/>
<path d="M6.81108 16.1775C6.50485 16.5035 6.32704 16.9431 6.32704 17.4074V20.2079C6.32704 20.4598 6.52955 20.6573 6.7765 20.6573H9.03369V19.146C9.03369 18.6669 8.84106 18.2075 8.5052 17.8667L6.81108 16.1726V16.1775Z" fill="#4D76B4"/>
</g>
<defs>
<clipPath id="clip0_1_70">
<rect width="28" height="20.3246" fill="white" transform="translate(0 0.337708)"/>
</clipPath>
</defs>
</svg>
