<svg width="28" height="28" viewBox="0 0 28 28" fill="none" xmlns="http://www.w3.org/2000/svg">
<g clip-path="url(#clip0_1_135)">
<path d="M14.0025 28C6.28259 28 0 21.7223 0 14.0025C0 6.28259 6.28259 0 14.0025 0C21.7223 0 28.0049 6.28259 28.0049 14.0025C28.0049 21.7223 21.7223 28.0049 14.0025 28.0049V28Z" fill="#3FB498"/>
<path d="M14.0025 23.3523C8.846 23.3523 4.65267 19.1589 4.65267 14.0025C4.65267 8.84601 8.846 4.64774 14.0025 4.64774C19.1589 4.64774 23.3523 8.84107 23.3523 13.9975C23.3523 19.154 19.1589 23.3473 14.0025 23.3473V23.3523Z" fill="white"/>
<path d="M14.0025 18.4329C11.5576 18.4329 9.57206 16.4473 9.57206 14.0025C9.57206 11.5576 11.5576 9.57205 14.0025 9.57205C16.4473 9.57205 18.4329 11.5576 18.4329 14.0025C18.4329 16.4473 16.4473 18.4329 14.0025 18.4329Z" fill="#E40521"/>
<path d="M14.0025 9.57205V18.4329C16.4473 18.4329 18.4329 16.4473 18.4329 14.0025C18.4329 11.5576 16.4473 9.57205 14.0025 9.57205Z" fill="#E10B56"/>
<path d="M14.0025 14.8224C13.7901 14.8224 13.5826 14.7433 13.4246 14.5803C13.1035 14.2593 13.1035 13.7407 13.4246 13.4196L19.4553 7.38895C19.7763 7.0679 20.2949 7.0679 20.616 7.38895C20.937 7.70999 20.937 8.2286 20.616 8.54964L14.5853 14.5803C14.4272 14.7384 14.2149 14.8224 14.0074 14.8224H14.0025Z" fill="#3C3C3B"/>
<path d="M20.616 7.38895L13.4246 14.5803C13.5826 14.7384 13.795 14.8224 14.0025 14.8224C14.2099 14.8224 14.4223 14.7433 14.5804 14.5803L20.611 8.54964C20.9321 8.2286 20.9321 7.70999 20.611 7.38895H20.616Z" fill="#1D1D1B"/>
<path d="M23.2436 9.05839C23.2436 9.05839 23.1992 9.05839 23.1745 9.05839L19.964 8.78674C19.5639 8.75216 19.2478 8.43606 19.2133 8.03599L18.9416 4.82554C18.9219 4.58353 19.0058 4.34645 19.1787 4.17852L22.6608 0.696421C22.888 0.46922 23.2238 0.395133 23.5251 0.503794C23.8264 0.612455 24.0339 0.889047 24.0586 1.20515L24.2709 3.72412L26.7899 3.9365C27.106 3.96119 27.3826 4.17358 27.4913 4.46993C27.5999 4.77121 27.5258 5.10708 27.2986 5.32934L23.8165 8.81143C23.6634 8.96455 23.451 9.05345 23.2387 9.05345L23.2436 9.05839Z" fill="#F7A941"/>
<path d="M26.7949 3.94145L24.2759 3.72906L19.4553 8.54967C19.5886 8.68302 19.7664 8.77193 19.964 8.78675L23.1745 9.0584C23.1745 9.0584 23.2189 9.0584 23.2436 9.0584C23.4609 9.0584 23.6684 8.97443 23.8215 8.81638L27.3036 5.33429C27.5308 5.10709 27.6049 4.77122 27.4962 4.46994C27.3875 4.16865 27.111 3.9612 26.7949 3.93651V3.94145Z" fill="#FBBE5E"/>
</g>
<defs>
<clipPath id="clip0_1_135">
<rect width="28" height="28" fill="white"/>
</clipPath>
</defs>
</svg>
